# AST/ASF file generated using VICON BodyLanguage
# -----------------------------------------------
:version 1.10
:name VICON
:units
  mass 1.0
  length 0.45
  angle deg
:documentation
   .ast/.asf automatically generated from VICON data using
   VICON BodyBuilder and BodyLanguage model FoxedUp or BRILLIANT.MOD
:root
   order TX TY TZ RX RY RZ
   axis XYZ
   position 0 0 0  
   orientation 0 0 0 
:bonedata
  begin
     id 1 
     name lhipjoint
     direction 0.576517 -0.752066 0.319413 
     length 2.45433 
     axis 0 0 0  XYZ
  end
  begin
     id 2 
     name lfemur
     direction 0.34202 -0.939693 0  
     length 7.54459  
     axis 0 0 20  XYZ
    dof rx ry rz
    limits (-160.0 20.0)
           (-70.0 70.0)
           (-60.0 70.0)
  end
  begin
     id 3 
     name ltibia
     direction 0.34202 -0.939693 0   
     length 7.73986   
     axis 0 0 20   XYZ
    dof rx
    limits (-10.0 170.0)
  end
  begin
     id 4 
     name lfoot
     direction 0.090693 -0.249177 0.964202   
     length 2.28437   
     axis -90 7.62852e-016 20   XYZ
    dof rx rz
    limits (-45.0 90.0)
           (-70.0 20.0)
  end
  begin
     id 5 
     name ltoes
     direction 1.5356e-011 -4.21928e-011 1   
     length 1.14243   
     axis -90 7.62852e-016 20   XYZ
    dof rx
    limits (-90.0 20.0)
  end
  begin
     id 6 
     name rhipjoint
     direction -0.573937 -0.753736 0.320122   
     length 2.44889  
     axis 0 0 0  XYZ 
  end
  begin
     id 7 
     name rfemur
     direction -0.34202 -0.939693 0   
     length 7.50166   
     axis 0 0 -20   XYZ
    dof rx ry rz
    limits (-160.0 20.0)
           (-70.0 70.0)
           (-70.0 60.0)
  end
  begin
     id 8 
     name rtibia
     direction -0.34202 -0.939693 0   
     length 7.54266   
     axis 0 0 -20   XYZ
    dof rx
    limits (-10.0 170.0)
 end
 begin
     id 9 
     name rfoot
     direction -0.114017 -0.31326 0.942798   
     length 2.34212  
     axis -90 -7.62852e-016 -20   XYZ
    dof rx rz
    limits (-45.0 90.0)
           (-20.0 70.0)
  end
  begin
     id 10 
     name rtoes
     direction -1.53557e-011 -4.21867e-011 1   
     length 1.16246   
     axis -90 -7.62852e-016 -20   XYZ
    dof rx
    limits (-90.0 20.0)
  end
  begin
     id 11 
     name lowerback
     direction -0.0228371 0.999155 -0.034167   
     length 2.0537   
     axis 0 0 0   XYZ
    dof rx ry rz
    limits (-20.0 45.0)
           (-30.0 30.0)
           (-30.0 30.0)
  end
  begin
     id 12 
     name upperback
     direction 0.0198981 0.999794 0.00389455   
     length 2.05302   
     axis 0 0 0   XYZ
    dof rx ry rz
    limits (-20.0 45.0)
           (-30.0 30.0)
           (-30.0 30.0)
  end
  begin
     id 13 
     name thorax
     direction 0.0304566 0.99935 0.0192987   
     length 2.05315   
     axis 0 0 0   XYZ
    dof rx ry rz
    limits (-20.0 45.0)
           (-30.0 30.0)
           (-30.0 30.0)
  end
  begin
     id 14 
     name lowerneck
     direction -0.0196762 0.99417 0.106017   
     length 1.82056   
     axis 0 0 0   XYZ
    dof rx ry rz
    limits (-20.0 45.0)
           (-30.0 30.0)
           (-30.0 30.0)
  end
  begin
     id 15 
     name upperneck
     direction 0.00517787 0.9802 -0.197944   
     length 1.83835   
     axis 0 0 0   XYZ
    dof rx ry rz
    limits (-20.0 45.0)
           (-30.0 30.0)
           (-30.0 30.0)
  end
  begin
     id 16
     name head
     direction 0.00211419 0.996945 -0.078081  
     length 1.85629  
     axis 0 0 0   XYZ
    dof rx ry rz
    limits (-20.0 45.0)
           (-30.0 30.0)
           (-30.0 30.0)
  end
  begin
     id 17 
     name lclavicle
     direction 0.930001 0.365811 -0.0357824  
     length 3.81961  
     axis 0 0 0   XYZ
    dof ry rz
    limits (-20.0 10.0)
           (0.0 20.0)
  end
  begin
     id 18 
     name lhumerus
     direction 1 -4.48968e-011 -3.06644e-027   
     length 5.14507   
     axis 180 -30 -90   XYZ
    dof rx ry rz
    limits (-60.0 90.0)
           (-90.0 90.0)
           (-90.0 90.0)
  end
  begin
     id 19
     name lradius
     direction 1 -4.48965e-011 9.06925e-028   
     length 3.50646   
     axis 180 -30 -90   XYZ
    dof rx
    limits (-10.0 170.0)
  end
  begin
     id 20
     name lwrist
     direction 1 -4.48957e-011 1.03922e-027   
     length 1.75323   
     axis -2.56395e-016 90 90   XYZ
    dof ry
    limits (-180.0 0.0)
 end
  begin
     id 21 
     name lhand
     direction 1 -4.48967e-011 2.08017e-027   
     length 0.629969   
     axis -1.32723e-015 90 90   XYZ
    dof rx rz
    limits (-90.0 90.0)
           (-45.0 45.0)
  end
  begin
     id 22 
     name lfingers
     direction 1 -4.49089e-011 4.20095e-027   
     length 0.507897   
     axis -2.6545e-015 90 90   XYZ
    dof rx
    limits (0.0 90.0)
  end
  begin
     id 23
     name lthumb
     direction 0.707107 -6.35001e-011 0.707107   
     length 0.729241   
     axis -90 45 5.05613e-014   XYZ
    dof rx rz
    limits (-45.0 45.0)
           (-45.0 45.0)
  end
  begin
     id 24 
     name rclavicle
     direction -0.881882 0.464123 -0.0829113   
     length 3.47515  
     axis 0 0 0   XYZ 
    dof ry rz
    limits (-10.0 20.0)
           (-20.0 0.0)
  end
  begin
     id 25 
     name rhumerus
     direction -1 -4.48961e-011 -1.55672e-027  
     length 5.232   
     axis 180 30 90   XYZ
    dof rx ry rz
    limits (-90.0 60.0)
           (-90.0 90.0)
           (-90.0 90.0)
  end
  begin
     id 26 
     name rradius
     direction -1 -4.48963e-011 6.18178e-029   
     length 3.65641   
     axis 180 30 90   XYZ
    dof rx
    limits (-10.0 170.0)
  end
  begin
     id 27 
     name rwrist
     direction -1 -4.48982e-011 1.04136e-027   
     length 1.8282   
     axis -2.56395e-016 -90 -90   XYZ
    dof ry
    limits (-180.0 0.0)
  end
  begin
     id 28
     name rhand
     direction -1 -4.48929e-011 2.07378e-027   
     length 0.656807   
     axis -1.32723e-015 -90 -90   XYZ
    dof rx rz
    limits (-90.0 90.0)
           (-45.0 45.0)
  end
  begin
     id 29
     name rfingers
     direction -1 -4.489e-011 4.13816e-027   
     length 0.529535   
     axis -2.6545e-015 -90 -90   XYZ
    dof rx
    limits (0.0 90.0)
  end
  begin
     id 30
     name rthumb
     direction -0.707107 -6.34843e-011 0.707107   
     length 0.760309   
     axis -90 -45 -5.05613e-014   XYZ
    dof rx rz
    limits (-45.0 45.0)
           (-45.0 45.0)
  end
:hierarchy
  begin
    root lhipjoint rhipjoint lowerback
    lhipjoint lfemur
    lfemur ltibia
    ltibia lfoot
    lfoot ltoes
    rhipjoint rfemur
    rfemur rtibia
    rtibia rfoot
    rfoot rtoes
    lowerback upperback
    upperback thorax
    thorax lowerneck lclavicle rclavicle
    lowerneck upperneck
    upperneck head
    lclavicle lhumerus
    lhumerus lradius
    lradius lwrist
    lwrist lhand lthumb
    lhand lfingers
    rclavicle rhumerus
    rhumerus rradius
    rradius rwrist
    rwrist rhand rthumb
    rhand rfingers
  end

#!OML:ASF H:\ManfredETheater\Project 1\Capture day 1\Session 1\subject.ASF
:FULLY-SPECIFIED
:DEGREES
16
root 1.46833 16.0733 -3.82673 -6.12094 4.18677 -0.106017
lowerback 4.4247 -0.6549 -2.89209
upperback 0.264908 -0.98028 1.62992
thorax -2.13154 -0.455091 3.36423
lowerneck -19.4062 -1.87222 -2.63654
upperneck 23.2602 -1.97165 0.621871
head 10.7374 -1.0598 0.372463
rclavicle 3.60297e-015 -1.51076e-014
rhumerus 25.9492 3.63987 -43.2698
rradius 69.4262
rwrist 9.45855
rhand 6.40378 -21.5809
rfingers 7.12502
rthumb 31.708 -48.8449
lclavicle 3.60297e-015 -1.51076e-014
lhumerus 25.5815 -1.66637 60.2749
lradius 74.7819
lwrist -23.3994
lhand 14.3496 16.1313
lfingers 7.12502
lthumb 39.2391 41.5824
rfemur -15.4794 -15.9368 7.8636
rtibia 63.1488
rfoot -33.1514 0.965828
rtoes -12.4629
lfemur -18.002 5.47263 -10.6888
ltibia 63.8452
lfoot -34.4683 -3.73907
ltoes -12.5629
17
root 1.46781 16.0737 -3.82662 -6.1179 4.18227 -0.0923377
lowerback 4.4284 -0.657034 -2.90712
upperback 0.266272 -0.983983 1.62918
thorax -2.13168 -0.456819 3.37221
lowerneck -19.4043 -1.86823 -2.64297
upperneck 23.2583 -1.96513 0.625932
head 10.7363 -1.0569 0.375986
rclavicle -1.11816e-015 1.11319e-014
rhumerus 25.9627 3.64267 -43.2904
rradius 69.4404
rwrist 9.45151
rhand 6.40405 -21.5829
rfingers 7.12502
rthumb 31.7083 -48.8469
lclavicle -1.11816e-015 1.11319e-014
lhumerus 25.5657 -1.64392 60.2712
lradius 74.799
lwrist -23.3953
lhand 14.3658 16.1527
lfingers 7.12502
lthumb 39.2544 41.5994
rfemur -15.4852 -15.928 7.85425
rtibia 63.1573
rfoot -33.1642 0.957
rtoes -12.4478
lfemur -18.0011 5.46691 -10.7036
ltibia 63.8419
lfoot -34.4566 -3.73608
ltoes -12.5608
18
root 1.46732 16.0737 -3.82635 -6.11135 4.15576 -0.0947672
lowerback 4.42405 -0.64741 -2.89395
upperback 0.266071 -0.970482 1.62466
thorax -2.13082 -0.450231 3.35923
lowerneck -19.3669 -1.86617 -2.63635
upperneck 23.2282 -1.969 0.639577
head 10.7182 -1.05637 0.379573
rclavicle 7.30534e-015 -4.77083e-015
rhumerus 25.9478 3.63578 -43.3203
rradius 69.4353
rwrist 9.47604
rhand 6.39483 -21.5787
rfingers 7.12502
rthumb 31.6995 -48.8445
lclavicle 7.30534e-015 -4.77083e-015
lhumerus 25.5813 -1.6506 60.2496
lradius 74.7884
lwrist -23.3994
lhand 14.3199 16.1344
lfingers 7.12502
lthumb 39.2111 41.5936
rfemur -15.5059 -15.8954 7.8728
rtibia 63.1663
rfoot -33.1583 0.944375
rtoes -12.4786
lfemur -17.9974 5.47733 -10.6986
ltibia 63.838
lfoot -34.4643 -3.69475
ltoes -12.647
19
root 1.4663 16.0731 -3.82645 -6.10548 4.131 -0.0844976
lowerback 4.43292 -0.642642 -2.90481
upperback 0.263895 -0.964936 1.62262
thorax -2.13833 -0.447191 3.3631
lowerneck -19.3454 -1.85519 -2.60011
upperneck 23.2121 -1.95455 0.598764
head 10.707 -1.05167 0.361197
rclavicle -1.14301e-014 2.14687e-014
rhumerus 25.938 3.63769 -43.3433
rradius 69.4556
rwrist 9.47359
rhand 6.42706 -21.5818
rfingers 7.12502
rthumb 31.7302 -48.8415
lclavicle -1.14301e-014 2.14687e-014
lhumerus 25.5606 -1.63565 60.2344
lradius 74.8026
lwrist -23.4271
lhand 14.328 16.1202
lfingers 7.12502
lthumb 39.2187 41.5772
rfemur -15.5314 -15.876 7.87738
rtibia 63.1803
rfoot -33.1659 0.909759
rtoes -12.5069
lfemur -17.9969 5.49262 -10.7049
ltibia 63.8348
lfoot -34.4676 -3.68371
ltoes -12.669
20
root 1.46585 16.0731 -3.82609 -6.10909 4.11297 -0.0720412
lowerback 4.44926 -0.636336 -2.90918
upperback 0.266658 -0.957282 1.61607
thorax -2.1453 -0.443259 3.35858
lowerneck -19.3672 -1.85994 -2.62862
upperneck 23.2396 -1.96156 0.635254
head 10.7222 -1.05286 0.377809
rclavicle -3.45388e-015 -7.55382e-015
rhumerus 25.938 3.62979 -43.3648
rradius 69.4394
rwrist 9.48356
rhand 6.49155 -21.5677
rfingers 7.12502
rthumb 31.7916 -48.8152
lclavicle -3.45388e-015 -7.55382e-015
lhumerus 25.5603 -1.63395 60.2147
lradius 74.7959
lwrist -23.4334
lhand 14.329 16.1505
lfingers 7.12502
lthumb 39.2196 41.6073
rfemur -15.5349 -15.8504 7.87183
rtibia 63.1882
rfoot -33.163 0.908193
rtoes -12.4499
lfemur -17.9823 5.49259 -10.7156
ltibia 63.8318
lfoot -34.4662 -3.69177
ltoes -12.5889
21
root 1.46515 16.0733 -3.82574 -6.09408 4.09773 -0.0375109
lowerback 4.43906 -0.636524 -2.94952
upperback 0.272655 -0.959444 1.60939
thorax -2.13269 -0.444317 3.37433
lowerneck -19.3368 -1.85636 -2.58613
upperneck 23.1987 -1.95505 0.577247
head 10.7001 -1.05334 0.351148
rclavicle -9.93923e-015 1.07344e-014
rhumerus 25.9623 3.63566 -43.3833
rradius 69.4375
rwrist 9.46805
rhand 6.47197 -21.6057
rfingers 7.12502
rthumb 31.7729 -48.8569
lclavicle -9.93923e-015 1.07344e-014
lhumerus 25.56 -1.59915 60.2084
lradius 74.8066
lwrist -23.4146
lhand 14.3338 16.1461
lfingers 7.12502
lthumb 39.2242 41.6016
rfemur -15.5599 -15.8373 7.84443
rtibia 63.2018
rfoot -33.1756 0.909943
rtoes -12.4601
lfemur -17.9852 5.49109 -10.7571
ltibia 63.8272
lfoot -34.4656 -3.64541
ltoes -12.6752
22
root 1.46466 16.0719 -3.82572 -6.10685 4.069 -0.0610856
lowerback 4.45728 -0.630288 -2.91761
upperback 0.27442 -0.949818 1.61581
thorax -2.14226 -0.439624 3.36268
lowerneck -19.3312 -1.86226 -2.58852
upperneck 23.2045 -1.95852 0.561246
head 10.7011 -1.0572 0.345305
rclavicle 7.25564e-015 -5.1684e-015
rhumerus 25.9604 3.6518 -43.386
rradius 69.4146
rwrist 9.4773
rhand 6.47748 -21.578
rfingers 7.12502
rthumb 31.7782 -48.8281
lclavicle 7.25564e-015 -5.1684e-015
lhumerus 25.55 -1.59851 60.1909
lradius 74.7917
lwrist -23.4155
lhand 14.3324 16.1307
lfingers 7.12502
lthumb 39.2229 41.5865
rfemur -15.5564 -15.8072 7.88095
rtibia 63.2074
rfoot -33.1769 0.861012
rtoes -12.5289
lfemur -17.9696 5.50519 -10.7245
ltibia 63.8297
lfoot -34.4675 -3.63365
ltoes -12.6899
23
root 1.46377 16.0718 -3.82528 -6.09922 4.05695 -0.0218646
lowerback 4.45678 -0.626785 -2.96263
upperback 0.27785 -0.947665 1.60378
thorax -2.1381 -0.438304 3.37547
lowerneck -19.3227 -1.86731 -2.58307
upperneck 23.2015 -1.96761 0.561148
head 10.6984 -1.0609 0.343084
rclavicle 6.16232e-015 -1.98785e-014
rhumerus 25.9684 3.65191 -43.4205
rradius 69.3965
rwrist 9.49215
rhand 6.46396 -21.5959
rfingers 7.12502
rthumb 31.7653 -48.8486
lclavicle 6.16232e-015 -1.98785e-014
lhumerus 25.5506 -1.585 60.1767
lradius 74.7879
lwrist -23.39
lhand 14.3193 16.1533
lfingers 7.12502
lthumb 39.2105 41.6127
rfemur -15.571 -15.7973 7.84131
rtibia 63.218
rfoot -33.1813 0.891998
rtoes -12.4583
lfemur -17.9659 5.50641 -10.7672
ltibia 63.826
lfoot -34.4761 -3.62844
ltoes -12.6508
